# xmcd
#
# Track frame offsets:
# 150
# 15542
# 31825
#
# Disc length: 724 seconds
#
#
# Revision: 0
# Processed by: cddbd v1.4PL0 Copyright (c) Steve Scherf et al.
# Submitted via: FreeRIP 2.30 
#
DISCID=1502d203
DTITLE=Tom Jones and Heather Small - You Need Love Like I Do (UK]
DYEAR=1900
DGENRE=Dance
TTITLE0=You Need Love Like I Do (7th District Radio Mix)
TTITLE1=You Need Love Like I Do [Fused Remix\\
TTITLE2=KISS
EXTD=
EXTT0=
EXTT1=
EXTT2=
PLAYORDER=
